<svg width="133" height="50" viewBox="0 0 133 50" fill="none" xmlns="http://www.w3.org/2000/svg">
<g clip-path="url(#clip0_14_2444)">
<path d="M50.25 37.5833C50.1667 17.25 32.9167 0.0833333 12.5833 0L0.25 50L50.25 37.5833Z" fill="#F6DA77"/>
<path d="M43.75 39.1667L45.5 38.8333C44.6666 23 33.3333 6.41667 11.3333 4.75L11.0833 6.41667C27.9166 8.58333 41.6666 22.25 43.75 39.1667Z" fill="#860D16"/>
<path d="M45.4167 38.8333L50.1667 37.6667C50.25 17.3333 32.9167 0 12.4167 0L11.25 4.75C30.8333 6.58333 43.5833 19.4167 45.4167 38.8333Z" fill="#C98E52"/>
<path d="M9.58335 33.0832C8.16669 33.0832 6.91669 32.5832 5.91669 31.5832C5.50002 31.1666 5.50002 30.4999 5.91669 30.1666C6.33335 29.7499 7.00002 29.7499 7.33335 30.1666C8.50002 31.3332 10.5834 31.3332 11.75 30.1666C12.3334 29.5832 12.6667 28.8332 12.6667 27.9999C12.6667 27.1666 12.3334 26.4166 11.75 25.8332C11.3334 25.4166 11.3334 24.7499 11.75 24.4166C12.1667 23.9999 12.8334 23.9999 13.1667 24.4166C14.1667 25.4166 14.6667 26.6666 14.6667 28.0832C14.6667 29.4999 14.1667 30.7499 13.1667 31.7499C12.25 32.4999 10.9167 33.0832 9.58335 33.0832ZM30.5 16.5832V16.9999C30.4167 17.2499 30.3334 17.4166 30.0834 17.5832C29.8334 17.7499 29.5834 17.7499 29.4167 17.6666C28.75 17.4999 28.0834 17.6666 27.5 17.9999C26.9167 18.3332 26.5 18.9166 26.3334 19.5832C26 20.9166 26.9167 22.3332 28.25 22.6666C28.75 22.7499 29.0834 23.3332 28.9167 23.7499C28.8334 24.2499 28.3334 24.5832 27.8334 24.4166C26.1667 23.9999 24.9167 22.7499 24.5 21.0832C24.3334 20.4166 24.3334 19.7499 24.5 19.1666C24.75 17.9999 25.5 17.0832 26.5 16.4166C27.5 15.7499 28.6667 15.5832 29.8334 15.8332C30.0834 15.9999 30.4167 16.2499 30.5 16.5832ZM34.9167 40.7499H34.5C34.25 40.6666 34.0834 40.5832 34 40.3332C33.9167 40.1666 33.8334 39.9166 33.9167 39.6666C34.0834 39.0832 34 38.4166 33.6667 37.8332C33.3334 37.2499 32.8334 36.8332 32.1667 36.6666C30.9167 36.3332 29.5 37.1666 29.1667 38.3332C29.0834 38.7499 28.5 39.0832 28.0834 38.9166C27.5834 38.7499 27.3334 38.3332 27.5 37.8332C27.9167 36.3332 29.1667 35.0832 30.75 34.8332C31.3334 34.7499 32 34.7499 32.5834 34.9166C33.6667 35.1666 34.5834 35.9166 35.0834 36.8332C35.6667 37.8332 35.75 38.9166 35.5 39.9999C35.5 40.4166 35.25 40.6666 34.9167 40.7499Z" fill="#83BF4F"/>
<path d="M29.25 28.5C30.4167 31.9166 28.5834 35.5833 25.0834 36.75C21.5834 37.9166 17.8334 36.0833 16.75 32.6666C15.5834 29.25 17.4167 25.5833 20.9167 24.4166C24.3334 23.25 28.0834 25.0833 29.25 28.5ZM39.6667 29.1666C40.3334 31.25 39.25 33.4166 37.1667 34.1666C35.0834 34.8333 32.8334 33.75 32.1667 31.6666C31.5 29.5833 32.5834 27.4166 34.6667 26.6666C36.6667 26 38.9167 27.0833 39.6667 29.1666ZM22.5 14.1666C23.4167 16.9166 21.9167 20 19.0834 20.9166C16.25 21.8333 13.1667 20.3333 12.25 17.5833C11.3334 14.8333 12.8334 11.75 15.6667 10.8333C18.5 9.91664 21.5834 11.4166 22.5 14.1666ZM27 43.3333L18.9167 45.3333C18.1667 43.1666 19.6667 40.5833 21.8334 40C24.5 39.3333 26.25 41.25 27 43.3333ZM14.6667 37.5C15.6667 40.3333 14.0834 43.5 11.1667 44.4166C8.25002 45.4166 5.08335 43.8333 4.08335 40.9166C3.08335 38.0833 4.66669 34.9166 7.58335 34C10.5 33.0833 13.6667 34.6666 14.6667 37.5Z" fill="#B21725"/>
<path d="M11.25 4.75C15.6667 4.83333 20.0833 5.66667 24.25 7.33333C28.4167 8.91667 32.3333 11.4167 35.5 14.6667C38.6667 17.8333 41.1667 21.75 42.8333 25.9167C44.5 30.0833 45.3333 34.5 45.4167 38.9167C44.6667 34.5833 43.5 30.3333 41.6667 26.4167C39.8333 22.5 37.4167 18.8333 34.3333 15.8333C31.3333 12.75 27.6667 10.3333 23.75 8.58333C19.8333 6.66667 15.5833 5.5 11.25 4.75Z" fill="#E0A763"/>
<path d="M12.3283 9.52988L13.9783 7.87988L15.6283 9.52988L13.9783 11.1799L12.3283 9.52988ZM23.1 14.2032L24.75 12.5532L26.4 14.2032L24.75 15.8532L23.1 14.2032ZM9.08997 20.3732L10.74 18.7232L12.39 20.3732L10.74 22.0232L9.08997 20.3732ZM14.79 25.1124L16.44 23.4624L18.09 25.1124L16.44 26.7624L14.79 25.1124ZM29.6208 25.3249L31.2708 23.6749L32.9208 25.3249L31.2708 26.9749L29.6208 25.3249ZM39.1866 37.1174L40.8366 35.4674L42.4866 37.1174L40.8366 38.7674L39.1866 37.1174ZM14.6808 35.5432L16.3308 33.8932L17.9808 35.5432L16.3308 37.1932L14.6808 35.5432ZM15.8616 41.5857L17.5116 39.9357L19.1616 41.5857L17.5116 43.2357L15.8616 41.5857ZM1.9483 46.8674L3.5983 45.2174L5.2483 46.8674L3.5983 48.5174L1.9483 46.8674ZM9.97497 12.7732L11.2125 11.5357L12.45 12.7732L11.2125 14.0107L9.97497 12.7732ZM20.46 21.5774L21.6975 20.3399L22.935 21.5774L21.6975 22.8149L20.46 21.5774ZM31.7291 21.6291L32.9666 20.3915L34.2041 21.6291L32.9666 22.8666L31.7291 21.6291ZM9.52997 28.4699L10.7675 27.2324L12.005 28.4699L10.7675 29.7074L9.52997 28.4699ZM4.46664 33.4165L5.70414 32.1791L6.94164 33.4157L5.70414 34.6532L4.46664 33.4165ZM2.52497 43.7374L3.76247 42.4999L4.99997 43.7374L3.76247 44.9749L2.52497 43.7374ZM13.23 44.4049L14.4675 43.1674L15.705 44.4057L14.4675 45.6424L13.23 44.4049ZM23.9816 38.6215L25.2191 37.3841L26.4566 38.6215L25.2191 39.8591L23.9816 38.6215ZM29.2016 40.7466L30.4391 39.509L31.6766 40.7466L30.4391 41.9832L29.2016 40.7466ZM36.1466 35.9749L37.3841 34.7382L38.6216 35.9757L37.3841 37.2132L36.1466 35.9749Z" fill="#FFAB41"/>
</g>
<path d="M66.4136 34.0001V15.8182H73.5869C74.9659 15.8182 76.1407 16.0816 77.1114 16.6084C78.082 17.1292 78.8218 17.8542 79.3308 18.7834C79.8457 19.7067 80.1032 20.7721 80.1032 21.9795C80.1032 23.1869 79.8428 24.2522 79.322 25.1755C78.8011 26.0988 78.0465 26.8179 77.0581 27.3328C76.0756 27.8477 74.886 28.1052 73.4892 28.1052H68.9171V25.0246H72.8678C73.6076 25.0246 74.2172 24.8973 74.6966 24.6428C75.1819 24.3824 75.543 24.0243 75.7797 23.5686C76.0224 23.107 76.1437 22.5772 76.1437 21.9795C76.1437 21.3758 76.0224 20.849 75.7797 20.3992C75.543 19.9435 75.1819 19.5913 74.6966 19.3428C74.2113 19.0883 73.5957 18.961 72.85 18.961H70.2577V34.0001H66.4136Z" fill="#AF5901"/>
<path d="M83.2791 34.0001V20.3637H87.061V34.0001H83.2791ZM85.1789 18.6059C84.6167 18.6059 84.1343 18.4195 83.7318 18.0466C83.3353 17.6678 83.137 17.215 83.137 16.6883C83.137 16.1674 83.3353 15.7206 83.7318 15.3477C84.1343 14.9689 84.6167 14.7795 85.1789 14.7795C85.7412 14.7795 86.2206 14.9689 86.6171 15.3477C87.0196 15.7206 87.2208 16.1674 87.2208 16.6883C87.2208 17.215 87.0196 17.6678 86.6171 18.0466C86.2206 18.4195 85.7412 18.6059 85.1789 18.6059Z" fill="#AF5901"/>
<path d="M90.7696 34.0001V31.7451L97.4457 23.4798V23.3822H91.0004V20.3637H102V22.8229L95.7323 30.8839V30.9816H102.231V34.0001H90.7696Z" fill="#AF5901"/>
<path d="M105.802 34.0001V31.7451L112.478 23.4798V23.3822H106.033V20.3637H117.032V22.8229L110.765 30.8839V30.9816H117.263V34.0001H105.802Z" fill="#AF5901"/>
<path d="M124.794 34.2575C123.924 34.2575 123.148 34.1066 122.468 33.8048C121.787 33.497 121.248 33.0442 120.852 32.4464C120.461 31.8428 120.266 31.0911 120.266 30.1915C120.266 29.4339 120.405 28.7977 120.683 28.2827C120.961 27.7678 121.34 27.3535 121.819 27.0398C122.299 26.7262 122.843 26.4894 123.453 26.3296C124.069 26.1698 124.714 26.0574 125.388 25.9923C126.181 25.9094 126.821 25.8325 127.306 25.7614C127.791 25.6845 128.143 25.572 128.362 25.4241C128.581 25.2761 128.691 25.0571 128.691 24.7671V24.7138C128.691 24.1516 128.513 23.7166 128.158 23.4088C127.809 23.101 127.312 22.9472 126.667 22.9472C125.986 22.9472 125.445 23.0981 125.042 23.3999C124.64 23.6959 124.373 24.0687 124.243 24.5185L120.745 24.2344C120.923 23.4058 121.272 22.6897 121.793 22.086C122.314 21.4764 122.985 21.0088 123.808 20.6833C124.637 20.3519 125.596 20.1861 126.685 20.1861C127.442 20.1861 128.167 20.2749 128.86 20.4525C129.558 20.63 130.176 20.9053 130.715 21.2781C131.26 21.651 131.689 22.1304 132.002 22.7163C132.316 23.2964 132.473 23.9918 132.473 24.8026V34.0001H128.886V32.1091H128.78C128.561 32.5352 128.268 32.9111 127.901 33.2366C127.534 33.5562 127.093 33.8077 126.578 33.9912C126.063 34.1687 125.468 34.2575 124.794 34.2575ZM125.877 31.6474C126.433 31.6474 126.924 31.5379 127.35 31.319C127.777 31.0941 128.111 30.7922 128.354 30.4134C128.596 30.0346 128.718 29.6055 128.718 29.1261V27.679C128.599 27.756 128.436 27.827 128.229 27.8921C128.028 27.9513 127.8 28.0075 127.546 28.0608C127.291 28.1081 127.037 28.1525 126.782 28.194C126.528 28.2295 126.297 28.262 126.09 28.2916C125.646 28.3567 125.258 28.4603 124.927 28.6023C124.595 28.7444 124.338 28.9367 124.154 29.1794C123.971 29.4161 123.879 29.7121 123.879 30.0672C123.879 30.5821 124.066 30.9757 124.438 31.2479C124.817 31.5143 125.297 31.6474 125.877 31.6474Z" fill="#AF5901"/>
<defs>
<clipPath id="clip0_14_2444">
<rect width="50.8333" height="50" fill="white"/>
</clipPath>
</defs>
</svg>
