<svg width="40" height="48" viewBox="0 0 40 48" fill="none" xmlns="http://www.w3.org/2000/svg">
<mask id="mask0_3653_941" style="mask-type:luminance" maskUnits="userSpaceOnUse" x="0" y="0" width="40" height="48">
<path d="M29.5091 5.45459H34.9091C35.4878 5.45459 36.0427 5.68446 36.4519 6.09363C36.861 6.5028 37.0909 7.05775 37.0909 7.63641V43.6364C37.0909 44.2151 36.861 44.77 36.4519 45.1792C36.0427 45.5884 35.4878 45.8182 34.9091 45.8182H4.36364C3.78499 45.8182 3.23003 45.5884 2.82086 45.1792C2.41169 44.77 2.18182 44.2151 2.18182 43.6364V7.63641C2.18182 7.05775 2.41169 6.5028 2.82086 6.09363C3.23003 5.68446 3.78499 5.45459 4.36364 5.45459H12V8.72732H27.2727V5.45459H29.5091Z" fill="white"/>
<path fill-rule="evenodd" clip-rule="evenodd" d="M1.27808 4.55078C2.09642 3.73244 3.20633 3.27271 4.36364 3.27271H12C13.205 3.27271 14.1818 4.24954 14.1818 5.45452V6.54543H25.0909V5.45452C25.0909 4.24954 26.0677 3.27271 27.2727 3.27271H34.9091C36.0664 3.27271 37.1763 3.73244 37.9947 4.55078C38.813 5.36913 39.2727 6.47904 39.2727 7.63634V43.6363C39.2727 44.7936 38.813 45.9036 37.9947 46.7219C37.1763 47.5402 36.0664 48 34.9091 48H4.36364C3.20633 48 2.09642 47.5402 1.27808 46.7219C0.459739 45.9036 0 44.7936 0 43.6363V7.63634C0 6.47903 0.45974 5.36912 1.27808 4.55078ZM29.4545 7.63634V8.72725C29.4545 9.93224 28.4777 10.9091 27.2727 10.9091H12C10.795 10.9091 9.81818 9.93224 9.81818 8.72725V7.63634H4.36364L4.36364 43.6363H34.9091V7.63634H29.4545Z" fill="white"/>
<path fill-rule="evenodd" clip-rule="evenodd" d="M9.81818 2.18182C9.81818 0.976833 10.795 0 12 0H27.2727C28.4777 0 29.4545 0.976833 29.4545 2.18182V8.72727C29.4545 9.93226 28.4777 10.9091 27.2727 10.9091H12C10.795 10.9091 9.81818 9.93226 9.81818 8.72727V2.18182ZM14.1818 4.36364V6.54545H25.0909V4.36364H14.1818Z" fill="white"/>
<path fill-rule="evenodd" clip-rule="evenodd" d="M24.4518 17.0025C25.3039 17.8545 25.304 19.2359 24.452 20.088L19.4488 25.0919H25.0953C25.9779 25.0919 26.7735 25.6236 27.1112 26.439C27.4488 27.2544 27.262 28.193 26.6377 28.8169L17.9061 37.5441C17.0538 38.396 15.6724 38.3956 14.8205 37.5434C13.9687 36.6911 13.969 35.3097 14.8213 34.4578L19.8261 29.4555H14.1819C13.2994 29.4555 12.5039 28.924 12.1662 28.1087C11.8285 27.2935 12.0151 26.355 12.639 25.731L21.3663 17.0027C22.2183 16.1506 23.5997 16.1505 24.4518 17.0025Z" fill="black"/>
</mask>
<g mask="url(#mask0_3653_941)">
<path d="M-6.54546 -2.18188H45.8182V50.1818H-6.54546V-2.18188Z" fill="#FF8100"/>
</g>
</svg>

